HIERARCHY
ROOT Hips
{
	OFFSET 0.000000 71.427986 0.000000
	CHANNELS 6 Xposition Yposition Zposition Xrotation Yrotation Zrotation
	JOINT Pelvis
	{
		OFFSET 0.000000 0.000000 0.000000
		CHANNELS 3 Xrotation Yrotation Zrotation
		JOINT LeftUpLeg
		{
			OFFSET 6.797100 -2.508499 -1.318700
			CHANNELS 3 Xrotation Yrotation Zrotation
			JOINT LeftLeg
			{
				OFFSET 0.069008 -29.241863 0.690200
				CHANNELS 3 Xrotation Yrotation Zrotation
				JOINT LeftFoot
				{
					OFFSET -0.069008 -29.568123 -0.266800
					CHANNELS 3 Xrotation Yrotation Zrotation
					JOINT LeftToeBase
					{
						OFFSET 3.145500 -8.631000 16.059900
						CHANNELS 3 Xrotation Yrotation Zrotation
						End Site
						{
							OFFSET 0.000000 18.501587 0.000000
						}
					}
				}
			}
			JOINT Left_ShortSleeve
			{
				OFFSET 0.265923 -10.480953 1.153800
				CHANNELS 3 Xrotation Yrotation Zrotation
				End Site
				{
					OFFSET 1.725763 19.823879 0.000000
				}
			}
		}
		JOINT RightUpLeg
		{
			OFFSET -6.797100 -2.508499 -1.318700
			CHANNELS 3 Xrotation Yrotation Zrotation
			JOINT RightLeg
			{
				OFFSET -0.082453 -29.241932 0.688000
				CHANNELS 3 Xrotation Yrotation Zrotation
				JOINT RightFoot
				{
					OFFSET 0.082453 -29.568058 -0.264600
					CHANNELS 3 Xrotation Yrotation Zrotation
					JOINT RightToeBase
					{
						OFFSET -3.115300 -8.682800 16.113400
						CHANNELS 3 Xrotation Yrotation Zrotation
						End Site
						{
							OFFSET 0.000000 18.567114 0.000000
						}
					}
				}
			}
			JOINT Right_ShortSleeve
			{
				OFFSET -0.265923 -10.480953 1.153800
				CHANNELS 3 Xrotation Yrotation Zrotation
				End Site
				{
					OFFSET -1.725766 19.823910 0.000000
				}
			}
		}
	}
	JOINT Spine
	{
		OFFSET 0.000000 13.368103 0.470500
		CHANNELS 3 Xrotation Yrotation Zrotation
		JOINT Spine1
		{
			OFFSET 0.147000 13.837402 0.538800
			CHANNELS 3 Xrotation Yrotation Zrotation
			JOINT Spine2
			{
				OFFSET 0.168000 16.242897 -1.435500
				CHANNELS 3 Xrotation Yrotation Zrotation
				JOINT Neck
				{
					OFFSET 0.217200 18.631500 -1.679100
					CHANNELS 3 Xrotation Yrotation Zrotation
					JOINT Head
					{
						OFFSET 0.000000 6.599396 1.385900
						CHANNELS 3 Xrotation Yrotation Zrotation
						JOINT Hat
						{
							OFFSET -0.532200 27.220596 -10.096100
							CHANNELS 3 Xrotation Yrotation Zrotation
							End Site
							{
								OFFSET 0.000000 22.029861 0.000000
							}
						}
						JOINT HairD
						{
							OFFSET -10.777400 17.437393 -1.325900
							CHANNELS 3 Xrotation Yrotation Zrotation
							JOINT HairD1
							{
								OFFSET -3.290299 -11.051193 1.062200
								CHANNELS 3 Xrotation Yrotation Zrotation
								End Site
								{
									OFFSET 0.000000 11.579437 0.000000
								}
							}
						}
						JOINT HairB
						{
							OFFSET -10.777400 17.437393 1.467900
							CHANNELS 3 Xrotation Yrotation Zrotation
							JOINT HairB1
							{
								OFFSET -1.561200 -12.956299 3.590200
								CHANNELS 3 Xrotation Yrotation Zrotation
								End Site
								{
									OFFSET 0.000000 13.534866 0.000000
								}
							}
						}
						JOINT HairA
						{
							OFFSET 9.713100 17.437393 1.467900
							CHANNELS 3 Xrotation Yrotation Zrotation
							JOINT HairA1
							{
								OFFSET 1.561200 -12.956299 3.590200
								CHANNELS 3 Xrotation Yrotation Zrotation
								End Site
								{
									OFFSET 0.000000 13.534866 0.000000
								}
							}
						}
						JOINT HairC
						{
							OFFSET 9.713100 17.437393 -1.325900
							CHANNELS 3 Xrotation Yrotation Zrotation
							JOINT HairC1
							{
								OFFSET 3.290300 -11.051193 1.062200
								CHANNELS 3 Xrotation Yrotation Zrotation
								End Site
								{
									OFFSET 0.000000 11.579437 0.000000
								}
							}
						}
					}
				}
				JOINT LeftShoulder
				{
					OFFSET 5.101800 15.108002 -2.763700
					CHANNELS 3 Xrotation Yrotation Zrotation
					JOINT LeftArm
					{
						OFFSET 9.825497 2.506317 -1.597400
						CHANNELS 3 Xrotation Yrotation Zrotation
						JOINT LeftForeArm
						{
							OFFSET 21.966244 0.000000 0.000000
							CHANNELS 3 Xrotation Yrotation Zrotation
							JOINT LeftHand
							{
								OFFSET 33.879036 0.000000 0.000000
								CHANNELS 3 Xrotation Yrotation Zrotation
								JOINT LeftHandThumb1
								{
									OFFSET 6.715286 -2.359680 3.363841
									CHANNELS 3 Xrotation Yrotation Zrotation
									JOINT LeftHandThumb2
									{
										OFFSET 2.507072 -1.447464 1.447461
										CHANNELS 3 Xrotation Yrotation Zrotation
										JOINT LeftHandThumb3
										{
											OFFSET 2.898338 -1.673355 1.673357
											CHANNELS 3 Xrotation Yrotation Zrotation
											End Site
											{
												OFFSET -0.295959 3.727692 -0.131651
											}
										}
									}
								}
								JOINT LeftHandIndex1
								{
									OFFSET 14.190811 -0.254547 3.840278
									CHANNELS 3 Xrotation Yrotation Zrotation
									JOINT LeftHandIndex2
									{
										OFFSET 3.551727 0.000000 -0.000000
										CHANNELS 3 Xrotation Yrotation Zrotation
										JOINT LeftHandIndex3
										{
											OFFSET 2.894196 0.000000 0.000000
											CHANNELS 3 Xrotation Yrotation Zrotation
											End Site
											{
												OFFSET -1.000603 2.690872 0.366626
											}
										}
									}
								}
								JOINT LeftHandMiddle1
								{
									OFFSET 13.776489 0.000000 0.000000
									CHANNELS 3 Xrotation Yrotation Zrotation
									JOINT LeftHandMiddle2
									{
										OFFSET 3.438232 0.000000 0.000000
										CHANNELS 3 Xrotation Yrotation Zrotation
										JOINT LeftHandMiddle3
										{
											OFFSET 3.691551 0.000000 0.000000
											CHANNELS 3 Xrotation Yrotation Zrotation
											End Site
											{
												OFFSET -1.082298 3.499527 0.457670
											}
										}
									}
								}
								JOINT LeftHandRing1
								{
									OFFSET 13.966164 -0.268127 -3.067488
									CHANNELS 3 Xrotation Yrotation Zrotation
									JOINT LeftHandRing2
									{
										OFFSET 3.162567 0.000000 0.000000
										CHANNELS 3 Xrotation Yrotation Zrotation
										JOINT LeftHandRing3
										{
											OFFSET 3.324348 0.000000 0.000000
											CHANNELS 3 Xrotation Yrotation Zrotation
											End Site
											{
												OFFSET -0.861900 3.184998 0.405154
											}
										}
									}
								}
								JOINT LeftHandPinky1
								{
									OFFSET 13.131393 -0.168503 -5.746925
									CHANNELS 3 Xrotation Yrotation Zrotation
									JOINT LeftHandPinky2
									{
										OFFSET 2.849182 0.000000 0.000000
										CHANNELS 3 Xrotation Yrotation Zrotation
										JOINT LeftHandPinky3
										{
											OFFSET 2.805038 0.000000 0.000000
											CHANNELS 3 Xrotation Yrotation Zrotation
											End Site
											{
												OFFSET -0.882500 2.642609 0.325652
											}
										}
									}
								}
							}
							JOINT Left_Sleeve
							{
								OFFSET 6.592125 -0.646545 0.805568
								CHANNELS 3 Xrotation Yrotation Zrotation
								End Site
								{
									OFFSET -0.000179 20.275787 -0.000000
								}
							}
						}
					}
				}
				JOINT RightShoulder
				{
					OFFSET -5.731700 15.108002 -2.763700
					CHANNELS 3 Xrotation Yrotation Zrotation
					JOINT RightArm
					{
						OFFSET -9.825497 2.506317 -1.597400
						CHANNELS 3 Xrotation Yrotation Zrotation
						JOINT RightForeArm
						{
							OFFSET -21.966242 0.000000 0.000000
							CHANNELS 3 Xrotation Yrotation Zrotation
							JOINT RightHand
							{
								OFFSET -33.879032 0.000000 0.000000
								CHANNELS 3 Xrotation Yrotation Zrotation
								JOINT RightHandThumb1
								{
									OFFSET -6.715286 -2.359680 3.363841
									CHANNELS 3 Xrotation Yrotation Zrotation
									JOINT RightHandThumb2
									{
										OFFSET -2.507072 -1.447464 1.447461
										CHANNELS 3 Xrotation Yrotation Zrotation
										JOINT RightHandThumb3
										{
											OFFSET -2.898338 -1.673355 1.673357
											CHANNELS 3 Xrotation Yrotation Zrotation
											End Site
											{
												OFFSET 0.295959 3.727692 -0.131651
											}
										}
									}
								}
								JOINT RightHandIndex1
								{
									OFFSET -14.190811 -0.254547 3.840278
									CHANNELS 3 Xrotation Yrotation Zrotation
									JOINT RightHandIndex2
									{
										OFFSET -3.551727 0.000000 -0.000000
										CHANNELS 3 Xrotation Yrotation Zrotation
										JOINT RightHandIndex3
										{
											OFFSET -2.894196 0.000000 0.000000
											CHANNELS 3 Xrotation Yrotation Zrotation
											End Site
											{
												OFFSET 1.000603 2.690872 0.366626
											}
										}
									}
								}
								JOINT RightHandMiddle1
								{
									OFFSET -13.776489 0.000000 0.000000
									CHANNELS 3 Xrotation Yrotation Zrotation
									JOINT RightHandMiddle2
									{
										OFFSET -3.438232 0.000000 0.000000
										CHANNELS 3 Xrotation Yrotation Zrotation
										JOINT RightHandMiddle3
										{
											OFFSET -3.691551 0.000000 0.000000
											CHANNELS 3 Xrotation Yrotation Zrotation
											End Site
											{
												OFFSET 1.082298 3.499527 0.457670
											}
										}
									}
								}
								JOINT RightHandRing1
								{
									OFFSET -13.966164 -0.268127 -3.067488
									CHANNELS 3 Xrotation Yrotation Zrotation
									JOINT RightHandRing2
									{
										OFFSET -3.162567 0.000000 0.000000
										CHANNELS 3 Xrotation Yrotation Zrotation
										JOINT RightHandRing3
										{
											OFFSET -3.324348 0.000000 0.000000
											CHANNELS 3 Xrotation Yrotation Zrotation
											End Site
											{
												OFFSET 0.861900 3.184998 0.405154
											}
										}
									}
								}
								JOINT RightHandPinky1
								{
									OFFSET -13.131393 -0.168503 -5.746925
									CHANNELS 3 Xrotation Yrotation Zrotation
									JOINT RightHandPinky2
									{
										OFFSET -2.849182 0.000000 0.000000
										CHANNELS 3 Xrotation Yrotation Zrotation
										JOINT RightHandPinky3
										{
											OFFSET -2.805038 0.000000 0.000000
											CHANNELS 3 Xrotation Yrotation Zrotation
											End Site
											{
												OFFSET 0.882500 2.642609 0.325652
											}
										}
									}
								}
							}
							JOINT Right_Sleeve
							{
								OFFSET -6.592125 -0.646545 0.805568
								CHANNELS 3 Xrotation Yrotation Zrotation
								End Site
								{
									OFFSET 0.000179 20.275787 -0.000000
								}
							}
						}
					}
				}
				JOINT Bind_Right_JacketString
				{
					OFFSET -3.534800 11.969597 7.200700
					CHANNELS 3 Xrotation Yrotation Zrotation
					JOINT Bind_Right_JacketString1
					{
						OFFSET -0.319900 -6.102600 2.794100
						CHANNELS 3 Xrotation Yrotation Zrotation
						End Site
						{
							OFFSET 0.000000 6.719452 0.000000
						}
					}
				}
				JOINT Bind_Left_JacketString
				{
					OFFSET 2.904800 11.969597 7.200700
					CHANNELS 3 Xrotation Yrotation Zrotation
					JOINT Bind_Left_JacketString1
					{
						OFFSET 0.364800 -5.904503 3.186800
						CHANNELS 3 Xrotation Yrotation Zrotation
						End Site
						{
							OFFSET 0.000000 6.719513 0.000000
						}
					}
				}
				JOINT HairE
				{
					OFFSET 5.915200 17.612701 -11.592200
					CHANNELS 3 Xrotation Yrotation Zrotation
					JOINT HairE1
					{
						OFFSET 0.289200 -7.171898 -1.284500
						CHANNELS 3 Xrotation Yrotation Zrotation
						End Site
						{
							OFFSET 0.000000 7.291756 0.000000
						}
					}
				}
				JOINT HairF
				{
					OFFSET -0.864800 17.612701 -11.592200
					CHANNELS 3 Xrotation Yrotation Zrotation
					JOINT HairF1
					{
						OFFSET 0.000000 -14.087097 -2.127501
						CHANNELS 3 Xrotation Yrotation Zrotation
						End Site
						{
							OFFSET 0.000000 14.246841 0.000000
						}
					}
				}
				JOINT HairG
				{
					OFFSET -8.087700 17.612701 -11.592200
					CHANNELS 3 Xrotation Yrotation Zrotation
					JOINT HairG1
					{
						OFFSET -0.293600 -6.081398 -0.910100
						CHANNELS 3 Xrotation Yrotation Zrotation
						End Site
						{
							OFFSET 0.000000 6.156120 0.000000
						}
					}
				}
			}
		}
	}
	JOINT Pouch
	{
		OFFSET 0.000000 4.394501 10.847300
		CHANNELS 3 Xrotation Yrotation Zrotation
		End Site
		{
			OFFSET 0.000000 21.880577 0.000000
		}
	}
	JOINT Bag
	{
		OFFSET -13.229000 4.813004 -0.593300
		CHANNELS 3 Xrotation Yrotation Zrotation
		End Site
		{
			OFFSET 0.000000 21.880577 0.000000
		}
	}
	JOINT OccupyGuyFacialAnim_Joint
	{
		OFFSET 1.000000 -70.206398 -1.655000
		CHANNELS 3 Xrotation Yrotation Zrotation
		End Site
		{
			OFFSET 0.000000 21.880577 0.000000
		}
	}
}
MOTION
Frames: 4
Frame Time: 0.033333
87.087929 63.808716 0.726689 -1.468290 -44.397029 -0.307077 0.000000 -0.000003 -0.000000 -14.407932 -1.296970 6.217202 61.623312 16.023064 11.800293 -32.214884 4.596493 13.289094 0.000000 -0.000002 -0.000001 -0.000001 -0.000003 -0.000000 -37.840293 -10.098946 -17.495601 50.271384 10.191657 7.168768 -13.966169 -23.397037 -2.678976 0.000000 -0.000001 0.000000 0.000003 0.000001 -0.000000 1.469487 1.380860 4.003631 2.694323 2.928891 0.781826 2.651059 2.963788 0.793157 13.639210 6.423146 -3.928110 0.947158 28.068143 8.623729 0.000001 -0.000000 -0.000001 0.000001 -0.000000 -0.000001 0.000001 -0.000000 -0.000001 0.000001 -0.000000 -0.000001 0.000001 -0.000000 -0.000001 0.000001 -0.000000 -0.000001 0.000001 -0.000000 -0.000001 0.000001 -0.000000 -0.000001 0.000001 -0.000000 -0.000001 1.331740 -12.390487 -10.527013 -47.361823 -13.225380 -43.086128 0.000034 -64.467881 0.000031 -106.325193 19.602894 7.133467 -0.329763 -15.770051 7.158039 3.939057 7.948705 0.746813 0.000002 0.000001 -0.000001 0.460882 2.481202 -21.042819 0.460904 2.481185 -21.042811 0.000001 -0.000001 -0.000000 0.460202 2.479393 -21.026806 0.461594 2.482981 -21.058826 0.000003 0.000002 -0.000004 0.541876 2.682030 -22.840750 0.541898 2.682033 -22.840749 0.000001 0.000001 -0.000001 2.453794 6.666643 -25.490085 0.699376 -1.047984 -26.312692 -0.000002 -0.000001 -0.000001 -0.000001 0.000002 0.000002 1.478819 31.277810 10.772886 -33.511422 30.457320 49.315837 0.000047 107.687911 -0.000070 -50.544424 -37.183089 -33.135601 24.742849 -13.971799 11.207098 7.335553 -24.090813 -5.399723 -0.000000 -0.000001 0.000000 0.145450 10.767194 -0.131846 4.502355 -6.505471 69.343325 -0.000000 -0.000001 0.000002 5.893982 -6.868175 81.251678 5.893956 -6.868171 81.251678 -0.000001 -0.000000 0.000004 5.893958 -6.868124 81.251684 5.893954 -6.868183 81.251698 0.000001 0.000000 -0.000001 5.893973 -6.868200 81.251691 5.893987 -6.868181 81.251698 -0.000000 0.000000 0.000001 -0.000001 0.000001 -0.000004 -0.000000 -0.000003 -0.000000 -0.000000 0.000002 -0.000001 -0.000000 -0.000003 0.000000 -0.000000 -0.000003 0.000000 -0.000000 -0.000003 -0.000000 -0.000000 0.000002 -0.000001 -0.000000 -0.000003 0.000000 -0.000000 -0.000003 0.000000 -0.000000 -0.000003 -0.000000 -0.000000 0.000002 -0.000001 0.000000 -0.000003 -0.000000 0.000000 -0.000003 -0.000000 0.000000 -0.000003 -0.000000 
92.373672 64.168732 0.922096 -0.421398 -43.809520 1.542125 0.000000 0.000000 0.000000 -10.117892 -1.062954 4.119779 54.993166 16.042897 11.656998 -36.021817 2.926413 11.106246 -0.000001 -0.000002 0.000000 0.000000 0.000003 -0.000000 -39.062559 -7.682989 -20.462746 42.702537 10.227787 6.193738 -3.947989 -24.969715 2.570136 0.000000 0.000000 -0.000000 -0.000002 -0.000000 0.000001 1.312042 1.406947 3.877579 2.287904 2.876016 0.908169 2.242998 2.905107 0.922494 13.303896 6.788996 -4.522300 0.850076 29.560355 8.474513 -0.000000 -0.000000 -0.000001 -0.000000 -0.000000 -0.000001 -0.000000 -0.000000 -0.000001 -0.000000 -0.000000 -0.000001 -0.000000 -0.000000 0.000001 -0.000000 -0.000000 -0.000001 -0.000000 -0.000000 0.000001 -0.000000 -0.000000 -0.000001 -0.000000 -0.000000 -0.000001 1.370495 -12.456664 -10.891637 -46.658924 -11.952761 -43.262814 0.000052 -65.353688 0.000053 -106.750434 19.626246 6.936865 -0.329767 -15.770048 7.158045 3.939057 7.948705 0.746813 -0.000002 0.000002 0.000001 0.460889 2.481195 -21.042819 0.460905 2.481185 -21.042811 0.000001 -0.000001 0.000005 0.460204 2.479393 -21.026804 0.461595 2.482982 -21.058822 0.000007 0.000004 -0.000001 0.541876 2.682028 -22.840745 0.541896 2.682032 -22.840755 0.000002 0.000001 -0.000003 2.453798 6.666641 -25.490083 0.699378 -1.047990 -26.312691 0.000002 -0.000005 0.000000 0.000003 -0.000002 0.000001 1.306821 30.115837 10.685518 -32.773522 31.925458 49.365465 0.000095 107.668069 -0.000108 -50.381593 -37.304270 -33.216812 24.742847 -13.971798 11.207099 7.335554 -24.090823 -5.399720 -0.000000 0.000000 -0.000001 0.145452 10.767191 -0.131847 4.502355 -6.505472 69.343318 0.000000 -0.000001 0.000002 5.893982 -6.868174 81.251678 5.893956 -6.868171 81.251678 -0.000000 -0.000000 0.000001 5.893957 -6.868121 81.251678 5.893956 -6.868182 81.251698 -0.000000 -0.000000 -0.000004 5.893973 -6.868200 81.251684 5.893986 -6.868181 81.251691 -0.000000 0.000000 0.000002 -0.000001 0.000001 -0.000002 0.000000 0.000000 0.000001 0.000000 0.000002 0.000000 0.000000 0.000000 0.000001 0.000000 0.000000 0.000001 0.000000 0.000000 0.000001 0.000000 0.000002 0.000001 0.000000 0.000000 0.000001 0.000000 0.000000 0.000001 0.000000 0.000000 0.000001 0.000000 0.000002 0.000001 0.000000 0.000000 0.000000 0.000000 0.000000 0.000000 0.000000 0.000000 0.000000 
97.926514 64.424782 1.126598 0.676321 -43.209952 3.401493 -0.000000 -0.000003 0.000000 -6.641194 -0.865390 1.897926 48.362117 16.147108 11.427996 -38.734105 1.243555 8.906052 -0.000001 0.000000 -0.000001 0.000000 -0.000002 -0.000000 -37.861549 -6.305991 -23.271054 30.262188 10.314538 5.246303 8.798918 -26.132876 8.642917 -0.000000 -0.000000 -0.000000 -0.000000 0.000000 -0.000003 1.135838 1.415728 3.875942 1.851080 2.827996 1.005356 1.804824 2.850645 1.022715 12.946735 7.197484 -5.158519 0.760083 31.268142 8.262418 -0.000000 -0.000001 -0.000002 -0.000000 -0.000001 -0.000002 -0.000000 -0.000001 -0.000002 -0.000000 -0.000001 -0.000002 -0.000000 -0.000001 -0.000002 -0.000000 -0.000001 -0.000002 -0.000000 -0.000001 -0.000002 -0.000000 -0.000001 -0.000002 -0.000000 -0.000001 -0.000002 1.409446 -12.492946 -11.273876 -45.868654 -10.565390 -43.463871 0.000051 -66.326635 0.000046 -107.204996 19.658599 6.721847 -0.329764 -15.770050 7.158039 3.939063 7.948706 0.746811 -0.000002 0.000002 -0.000001 0.460883 2.481202 -21.042819 0.460904 2.481176 -21.042807 -0.000003 -0.000001 0.000001 0.460197 2.479395 -21.026806 0.461596 2.482988 -21.058824 0.000003 0.000001 -0.000003 0.541875 2.682028 -22.840743 0.541897 2.682033 -22.840757 0.000003 -0.000002 -0.000003 2.453793 6.666648 -25.490085 0.699383 -1.047982 -26.312692 -0.000000 -0.000001 -0.000001 0.000002 -0.000001 -0.000000 1.158007 28.936595 10.599934 -32.013817 33.431543 49.496547 0.000203 107.652476 -0.000212 -50.447316 -37.409834 -33.280530 24.742852 -13.971800 11.207100 7.335556 -24.090822 -5.399719 -0.000002 0.000000 -0.000001 0.145450 10.767195 -0.131847 4.502355 -6.505472 69.343318 -0.000001 -0.000001 -0.000002 5.893981 -6.868177 81.251678 5.893954 -6.868172 81.251678 -0.000002 -0.000001 -0.000001 5.893956 -6.868124 81.251678 5.893956 -6.868182 81.251698 -0.000000 -0.000001 -0.000000 5.893974 -6.868199 81.251684 5.893984 -6.868180 81.251691 -0.000000 0.000000 0.000002 -0.000000 -0.000001 -0.000002 -0.000000 -0.000000 -0.000000 -0.000000 -0.000000 -0.000001 -0.000000 -0.000000 0.000000 -0.000000 -0.000000 0.000000 -0.000000 -0.000000 -0.000000 -0.000000 -0.000000 -0.000001 -0.000000 -0.000000 0.000000 -0.000000 -0.000000 0.000000 -0.000000 -0.000000 -0.000000 -0.000000 -0.000000 -0.000001 -0.000000 -0.000003 0.000000 -0.000000 -0.000003 0.000000 -0.000000 -0.000003 0.000000 
97.926514 64.424782 1.126598 0.676321 -43.209952 3.401493 -0.000000 -0.000003 0.000000 -6.641194 -0.865390 1.897926 48.362117 16.147108 11.427996 -38.734105 1.243555 8.906052 -0.000001 0.000000 -0.000001 0.000000 -0.000002 -0.000000 -37.861549 -6.305991 -23.271054 30.262188 10.314538 5.246303 8.798918 -26.132876 8.642917 -0.000000 -0.000000 -0.000000 -0.000000 0.000000 -0.000003 1.135838 1.415728 3.875942 1.851080 2.827996 1.005356 1.804824 2.850645 1.022715 12.946735 7.197484 -5.158519 0.760083 31.268142 8.262418 -0.000000 -0.000001 -0.000002 -0.000000 -0.000001 -0.000002 -0.000000 -0.000001 -0.000002 -0.000000 -0.000001 -0.000002 -0.000000 -0.000001 -0.000002 -0.000000 -0.000001 -0.000002 -0.000000 -0.000001 -0.000002 -0.000000 -0.000001 -0.000002 -0.000000 -0.000001 -0.000002 1.409446 -12.492946 -11.273876 -45.868654 -10.565390 -43.463871 0.000051 -66.326635 0.000046 -107.204996 19.658599 6.721847 -0.329764 -15.770050 7.158039 3.939063 7.948706 0.746811 -0.000002 0.000002 -0.000001 0.460883 2.481202 -21.042819 0.460904 2.481176 -21.042807 -0.000003 -0.000001 0.000001 0.460197 2.479395 -21.026806 0.461596 2.482988 -21.058824 0.000003 0.000001 -0.000003 0.541875 2.682028 -22.840743 0.541897 2.682033 -22.840757 0.000003 -0.000002 -0.000003 2.453793 6.666648 -25.490085 0.699383 -1.047982 -26.312692 -0.000000 -0.000001 -0.000001 0.000002 -0.000001 -0.000000 1.158007 28.936595 10.599934 -32.013817 33.431543 49.496547 0.000203 107.652476 -0.000212 -50.447316 -37.409834 -33.280530 24.742852 -13.971800 11.207100 7.335556 -24.090822 -5.399719 -0.000002 0.000000 -0.000001 0.145450 10.767195 -0.131847 4.502355 -6.505472 69.343318 -0.000001 -0.000001 -0.000002 5.893981 -6.868177 81.251678 5.893954 -6.868172 81.251678 -0.000002 -0.000001 -0.000001 5.893956 -6.868124 81.251678 5.893956 -6.868182 81.251698 -0.000000 -0.000001 -0.000000 5.893974 -6.868199 81.251684 5.893984 -6.868180 81.251691 -0.000000 0.000000 0.000002 -0.000000 -0.000001 -0.000002 -0.000000 -0.000000 -0.000000 -0.000000 -0.000000 -0.000001 -0.000000 -0.000000 0.000000 -0.000000 -0.000000 0.000000 -0.000000 -0.000000 -0.000000 -0.000000 -0.000000 -0.000001 -0.000000 -0.000000 0.000000 -0.000000 -0.000000 0.000000 -0.000000 -0.000000 -0.000000 -0.000000 -0.000000 -0.000001 -0.000000 -0.000003 0.000000 -0.000000 -0.000003 0.000000 -0.000000 -0.000003 0.000000 
